<?xml version="1.0" encoding="UTF-8"?>
<svg version="1.1" xmlns="http://www.w3.org/2000/svg" width="512" height="512">
<path d="M0 0 C1.01790619 0.00215515 2.03581238 0.0043103 3.08456421 0.00653076 C17.69363523 0.05620146 32.02575853 0.30709809 46.375 3.3125 C47.34985352 3.51117676 48.32470703 3.70985352 49.32910156 3.91455078 C97.7109774 14.03517194 141.69928269 35.9516877 177.375 70.3125 C178.3640332 71.26068604 178.3640332 71.26068604 179.37304688 72.22802734 C188.86130305 81.37247479 197.6012044 90.66984009 205.375 101.3125 C206.23306152 102.46355017 207.09113451 103.61459177 207.94921875 104.765625 C213.98736829 112.95680614 219.34595521 121.47054105 224.375 130.3125 C224.73948242 130.94430176 225.10396484 131.57610352 225.47949219 132.22705078 C247.08534998 169.97532572 256.85198095 212.74189997 256.6875 255.9375 C256.68534485 256.95540619 256.6831897 257.97331238 256.68096924 259.02206421 C256.63129854 273.63113523 256.38040191 287.96325853 253.375 302.3125 C253.07698486 303.77478027 253.07698486 303.77478027 252.77294922 305.26660156 C242.65232806 353.6484774 220.7358123 397.63678269 186.375 433.3125 C185.74287598 433.97185547 185.11075195 434.63121094 184.45947266 435.31054688 C175.31502521 444.79880305 166.01765991 453.5387044 155.375 461.3125 C154.22394983 462.17056152 153.07290823 463.02863451 151.921875 463.88671875 C143.73224019 469.92427396 135.22961724 475.30707302 126.375 480.3125 C125.66778809 480.7146875 124.96057617 481.116875 124.23193359 481.53125 C101.09654164 494.5566741 75.92537591 503.30551461 49.9375 508.625 C49.21860596 508.77235596 48.49971191 508.91971191 47.7590332 509.0715332 C33.08339502 511.86090125 18.55831162 512.66142619 3.64770508 512.62817383 C0.70811513 512.6250221 -2.2304558 512.64854926 -5.16992188 512.67382812 C-18.54306192 512.71848737 -31.43916711 511.51301542 -44.625 509.3125 C-46.33055054 509.03031616 -46.33055054 509.03031616 -48.07055664 508.74243164 C-91.33802759 500.97044532 -132.38793216 480.98345309 -165.625 452.3125 C-166.37007813 451.67828125 -167.11515625 451.0440625 -167.8828125 450.390625 C-181.38779833 438.57948485 -194.05918743 425.82889772 -204.625 411.3125 C-205.48149066 410.16255169 -206.33826433 409.01281411 -207.1953125 407.86328125 C-213.23534209 399.67315742 -218.61867614 391.16870382 -223.625 382.3125 C-224.0271875 381.60528809 -224.429375 380.89807617 -224.84375 380.16943359 C-237.8691741 357.03404164 -246.61801461 331.86287591 -251.9375 305.875 C-252.08485596 305.15610596 -252.23221191 304.43721191 -252.3840332 303.6965332 C-255.35789088 288.05024391 -255.99800362 272.57681954 -255.9375 256.6875 C-255.93534485 255.66959381 -255.9331897 254.65168762 -255.93096924 253.60293579 C-255.88129854 238.99386477 -255.63040191 224.66174147 -252.625 210.3125 C-252.42632324 209.33764648 -252.22764648 208.36279297 -252.02294922 207.35839844 C-241.90232806 158.9765226 -219.9858123 114.98821731 -185.625 79.3125 C-184.99287598 78.65314453 -184.36075195 77.99378906 -183.70947266 77.31445312 C-174.56502521 67.82619695 -165.26765991 59.0862956 -154.625 51.3125 C-153.47394983 50.45443848 -152.32290823 49.59636549 -151.171875 48.73828125 C-142.98224019 42.70072604 -134.47961724 37.31792698 -125.625 32.3125 C-124.91778809 31.9103125 -124.21057617 31.508125 -123.48193359 31.09375 C-100.34654164 18.0683259 -75.17537591 9.31948539 -49.1875 4 C-48.46860596 3.85264404 -47.74971191 3.70528809 -47.0090332 3.5534668 C-31.36274391 0.57960912 -15.88931954 -0.06050362 0 0 Z " fill="#FFAB24" transform="translate(255.625,-0.3125)"/>
<path d="M0 0 C-1.66500952 4.99071507 -4.52508426 9.04151146 -7.4453125 13.36328125 C-8.24012527 14.55125557 -8.24012527 14.55125557 -9.05099487 15.76322937 C-10.73800516 18.28258408 -12.43139681 20.79757378 -14.125 23.3125 C-15.27255953 25.02380422 -16.41969978 26.73538967 -17.56640625 28.44726562 C-20.37275629 32.63478476 -23.18483582 36.81840184 -26 41 C-29.67818272 39.57792748 -32.79737714 37.93228307 -36.125 35.8125 C-58.86222244 22.48186408 -87.20085856 18.07538142 -112.88793945 24.16113281 C-122.04748923 26.60092725 -129.70245438 30.92661866 -135 39 C-136.79917072 44.39751216 -136.52163467 49.35273261 -134.8125 54.75 C-129.76733829 63.79649686 -121.24425964 67.20773866 -111.6875 70.0625 C-102.85420348 72.29775491 -93.85732362 73.31990661 -84.8347168 74.50683594 C-59.81729613 77.83798177 -31.33692032 83.65844669 -12 101 C-11.24074219 101.67804688 -10.48148438 102.35609375 -9.69921875 103.0546875 C2.32247971 114.40963629 9.57614837 129.44488336 10.203125 146.1015625 C10.36009803 155.1770035 9.94058904 163.32051945 7 172 C6.6596875 173.06734375 6.319375 174.1346875 5.96875 175.234375 C3.19348846 183.22262781 -0.71876249 189.43648672 -6 196 C-7.175625 197.5778125 -7.175625 197.5778125 -8.375 199.1875 C-19.5977571 211.21188261 -33.65404881 217.94347969 -49 223 C-49.78890625 223.34160156 -50.5778125 223.68320312 -51.390625 224.03515625 C-54.91104754 225.33686937 -58.50068545 225.94201207 -62.1875 226.5625 C-62.89197266 226.68818359 -63.59644531 226.81386719 -64.32226562 226.94335938 C-85.78419447 230.65306834 -108.70159609 230.58902225 -130 226 C-131.42056063 225.71868797 -132.84113356 225.437438 -134.26171875 225.15625 C-157.11751341 220.40644808 -181.42005359 210.67941166 -199 195 C-197.37090747 189.89148764 -194.27954125 186.00236913 -191.125 181.75 C-189.952087 180.15180293 -188.78023892 178.55282386 -187.609375 176.953125 C-186.7131543 175.73012695 -186.7131543 175.73012695 -185.79882812 174.48242188 C-184.03107607 172.04288565 -182.29813247 169.5827577 -180.578125 167.109375 C-180.03913574 166.3349707 -179.50014648 165.56056641 -178.94482422 164.76269531 C-177.91644058 163.28041544 -176.89187605 161.79547693 -175.87158203 160.30761719 C-175.40606934 159.63891602 -174.94055664 158.97021484 -174.4609375 158.28125 C-174.05665527 157.69408203 -173.65237305 157.10691406 -173.23583984 156.50195312 C-172 155 -172 155 -169 153 C-168.09121094 153.64066406 -167.18242187 154.28132812 -166.24609375 154.94140625 C-153.18199308 163.99726316 -140.44321162 170.04548829 -125 174 C-123.37578125 174.51626953 -123.37578125 174.51626953 -121.71875 175.04296875 C-112.98511788 177.29059466 -104.03174486 177.18227621 -95.0625 177.1875 C-93.95970703 177.19974609 -92.85691406 177.21199219 -91.72070312 177.22460938 C-77.70633362 177.24941357 -62.48567239 175.16493418 -52 165 C-47.62115075 159.63590967 -47.3852459 154.94658009 -47.61328125 148.09765625 C-48.29405075 142.64462377 -50.29164598 139.66089974 -54.25 135.8125 C-66.45403848 127.76892918 -80.60020507 125.65336722 -94.83248901 123.84848022 C-119.67701446 120.662378 -146.0416075 116.84716029 -167 102 C-167.76183594 101.48050781 -168.52367187 100.96101563 -169.30859375 100.42578125 C-182.03155598 91.22147974 -189.42860819 77.4998213 -192.5625 62.265625 C-195.22239973 42.41137341 -191.65844775 23.24637978 -179.5 7.0625 C-178.35547053 5.68957219 -177.18965433 4.33401688 -176 3 C-175.45730469 2.38769531 -174.91460937 1.77539062 -174.35546875 1.14453125 C-129.90844512 -46.00886853 -48.65493821 -29.48784134 0 0 Z " fill="#FFFEFD" transform="translate(351,155)"/>
</svg>
